<?xml version="1.0" encoding="UTF-8"?>
<svg id="logo" data-name="logo" xmlns="http://www.w3.org/2000/svg" viewBox="0 0 371.73 371.73">
  <defs>
    <style>
      .cls-1 {
        stroke-width: 1.81px;
      }

      .cls-1, .cls-2, .cls-3, .cls-4, .cls-5, .cls-6, .cls-7 {
        stroke: #000;
      }

      .cls-1, .cls-2, .cls-5 {
        stroke-linejoin: round;
      }

      .cls-2, .cls-5, .cls-6 {
        stroke-width: 2px;
      }

      .cls-2, .cls-7 {
        stroke-linecap: round;
      }

      .cls-3, .cls-4 {
        stroke-width: 10px;
      }

      .cls-3, .cls-4, .cls-6, .cls-7 {
        stroke-miterlimit: 100;
      }

      .cls-3, .cls-8 {
        fill: #ead7b9;
      }

      .cls-4, .cls-6, .cls-7 {
        fill: none;
      }

      .cls-9 {
        fill: #a52323;
      }

      .cls-9, .cls-10, .cls-8 {
        stroke-width: 0px;
      }

      .cls-7 {
        stroke-width: 5px;
      }
    </style>
  </defs>
  <g id="Layer_1-2" data-name="Layer 1">
    <g>
      <circle class="cls-3" cx="185.87" cy="185.87" r="180.87"/>
      <path class="cls-8" d="m368.46,193.67l-1.79-3.11c.04-1.56.07-3.13.07-4.7,0-68.64-38.24-128.34-94.57-158.99l-.47-.81-.5.29c-.4-.22-.81-.44-1.21-.65l.59,1.01L5.95,179.5l-.78-1.35c-.03.61-.04,1.23-.06,1.84l-.1.06.1.17c-.06,1.88-.1,3.76-.1,5.65,0,68.98,38.62,128.94,95.41,159.44l1.35,2.34,266.7-153.98Z"/>
      <line class="cls-7" x1="57.32" y1="261.09" x2="319.37" y2="108.65"/>
      <g>
        <polygon class="cls-9" points="177.89 79.43 159.95 89.6 159.95 6.62 177.89 5.18 177.89 79.43"/>
        <polygon class="cls-9" points="150.99 95.02 132.94 104.82 132.94 13.07 150.99 8.36 150.99 95.02"/>
        <polygon class="cls-9" points="123.54 110.77 105.85 120.57 105.85 23.51 123.54 16.02 123.54 110.77"/>
        <polygon class="cls-9" points="96.84 126.39 78.96 136.19 78.96 39.13 96.84 28.6 96.84 126.39"/>
        <polygon class="cls-9" points="69.87 142.89 51.77 152.69 51.77 64.49 69.87 47.62 69.87 142.89"/>
        <polygon class="cls-9" points="42.99 157.59 24.73 167.39 24.73 102.11 42.99 74.95 42.99 157.59"/>
        <polygon class="cls-9" points="16.54 172.61 3.92 178.1 5 162.95 16.54 122.15 16.54 172.61"/>
        <polygon class="cls-9" points="204.78 64.91 186.85 75.09 186.85 5 204.78 5.98 204.78 64.91"/>
        <polygon class="cls-9" points="231.93 48.11 214 58.29 214 7.17 231.93 11.05 231.93 48.11"/>
        <polygon class="cls-9" points="258.9 31.91 240.96 42.09 240.96 13.54 258.9 20.81 258.9 31.91"/>
      </g>
      <g>
        <polygon class="cls-9" points="197.06 291.88 215 281.7 215 364.68 197.06 366.12 197.06 291.88"/>
        <polygon class="cls-9" points="223.96 276.28 242.01 266.48 242.01 358.23 223.96 362.94 223.96 276.28"/>
        <polygon class="cls-9" points="251.41 260.53 269.1 250.73 269.1 347.79 251.41 355.28 251.41 260.53"/>
        <polygon class="cls-9" points="278.11 244.91 295.99 235.11 295.99 332.18 278.11 342.7 278.11 244.91"/>
        <polygon class="cls-9" points="305.09 228.41 323.18 218.61 323.18 306.81 305.09 323.69 305.09 228.41"/>
        <polygon class="cls-9" points="331.96 213.71 350.22 203.91 350.22 269.2 331.96 296.36 331.96 213.71"/>
        <polygon class="cls-9" points="358.41 198.69 371.03 193.2 369.95 208.35 358.41 249.15 358.41 198.69"/>
        <polygon class="cls-9" points="170.17 306.39 188.1 296.22 188.1 366.3 170.17 365.33 170.17 306.39"/>
        <polygon class="cls-9" points="143.02 323.19 160.95 313.02 160.95 364.13 143.02 360.26 143.02 323.19"/>
        <polygon class="cls-9" points="116.05 339.39 133.99 329.22 133.99 357.76 116.05 350.49 116.05 339.39"/>
      </g>
      <path class="cls-2" d="m140.12,123.8s-10.2,5.95-13.05,69c0,0-.9,4.42,2.01,4.33,0,0,2.57,3.17-2.7,11.03l15.69-16.59s1.31-2.29,11.81-1.01c10.5,1.28,22.05-11.25,26.32-18.67,4.28-7.42,11.89-18.49,10.8-41.96-1.09-23.47-22.09-25.65-22.09-25.65,0,0-17.17-2.18-40.23,15.53-23.06,17.7-27.67,32.17-27.67,32.17,0,0-4.8,9.49,0,25.31,0,0,.26-23.93,13.69-38.14,13.43-14.21,23.78-26.25,45.15-28.91,21.38-2.66,19.58,38.36,19.58,38.36,0,0-3.34,23.14-15.64,32.06,0,0-5.96,6.6-16.31,4.22,0,0-5.78-1.52-14.51,9.17,0,0,.94-61.31,7.16-70.24Z"/>
      <path class="cls-5" d="m190.33,168.27s24.71-7.73,12.04-44.55c0,0-1.61-6.3,9.22-4.84s22.05-8.89,22.05-8.89c0,0-4.35,27.97,2.47,28.01,6.83.04,17.06-10.84,20.81-22.05,0,0-9.79,35.4-29.47,29.14,0,0-12.11-.98,1.12-27.22,0,0-7.35,6.6-19.58,6.75,0,0,9.26,41.1-18.68,43.65Z"/>
      <ellipse class="cls-1" cx="268.23" cy="121.01" rx="6.08" ry="3.63" transform="translate(-7.01 225.11) rotate(-45)"/>
      <path class="cls-1" d="m117.55,320.37s27.71-21.23,16.44-95.62c0,0,32.91,24.3,47.46,54.9,0,0,4.72-28.05-4.05-81.45,0,0,14.7,64.5,7.2,87.07,0,0-.93,4.9-3.97.9s-20.73-36.65-39.6-49.73c0,0,11.35,63.9-23.48,83.93Z"/>
      <path class="cls-1" d="m208,228.8s-14.44,35.62-2.81,37.12,21.52-10.09,23.29-20.92c0,0,.58-2.44,4.51-12.83,3.93-10.39,1.79-18.19-1.02-16.76s-5.18,2.17-5.29,13.61c-.11,11.44,1.16,24.71,14.17,18.79,13.01-5.92,19.42-22.61,20.48-54.56s-3.49-28.86-3.49-28.86c0,0-7.31-5.44-4.39,29.08,2.93,34.52,11.51,44.66,22.95,33.75,0,0,13.01-12.75,14.74-25.31,0,0-13.5,24.67-23.51,24.64s-12.15-33.41-12.15-33.41c0,0-2.25-26.96,1.46-26.89,3.71.08,2.36,27.45,2.36,27.45,0,0-1.84,39.07-18.56,49.05-16.72,9.98-10.91-21.71-10.91-21.71,0,0,2.92-6.15,3.04.79.11,6.94-4.46,16.84-8.9,24.53s-13.52,17.02-15.4,7.09-.56-24.64-.56-24.64Z"/>
      <path class="cls-1" d="m241.86,197.75s14.14-12.04,35.21-19.46c0,0-30,14.1-35.21,19.46Z"/>
      <circle class="cls-4" cx="185.87" cy="185.87" r="180.87"/>
      <line class="cls-10" x1="104.62" y1="347.5" x2="366.73" y2="194.84"/>
      <line class="cls-6" x1="102.68" y1="347.11" x2="367.66" y2="192.79"/>
      <line class="cls-6" x1="5" y1="180.05" x2="269.98" y2="25.72"/>
    </g>
  </g>
</svg>