<?xml version="1.0" encoding="UTF-8"?>
<svg id="soda_can_icon" data-name="soda can icon" xmlns="http://www.w3.org/2000/svg" viewBox="0 0 142.98 168.17">
  <defs>
    <style>
      .sc-1 {
        stroke-width: 5.91px;
      }

      .sc-1, .sc-2, .sc-3, .sc-4, .sc-5, .sc-6, .sc-7 {
        stroke-miterlimit: 10;
      }

      .sc-1, .sc-3, .sc-4, .sc-5 {
        fill: none;
      }

      .sc-1, .sc-5 {
        stroke: #000;
      }

      .sc-2 {
        fill: #ead7b9;
      }

      .sc-2, .sc-3, .sc-6 {
        stroke-width: 7.21px;
      }

      .sc-2, .sc-4, .sc-6, .sc-7 {
        stroke: #231f20;
        stroke-linecap: round;
      }

      .sc-3 {
        stroke: #ead7b9;
      }

      .sc-4, .sc-7 {
        stroke-width: 7.3px;
      }

      .sc-5 {
        stroke-width: 6.5px;
      }

      .sc-6, .sc-7 {
        fill: #a52323;
      }
    </style>

<script>
const vectorGraphic = document.querySelector('#soda_can_icon')

function logThisId() {
    console.log(this);
    console.log('i have been clicked', this.id);
}

vectorGraphic.addEventListener('click', logThisId);
</script>

  </defs>
  <line class="sc-2" x1="55.16" y1="15.93" x2="7.49" y2="110.26"/>
  <rect class="sc-7" x="26.1" y="27.22" width="85.98" height="112.91" rx="6.9" ry="6.9" transform="translate(45.17 -22.17) rotate(26.81)"/>
  <path class="sc-3" d="m115,87.62c-.23.66-.5,1.3-.82,1.93-6.49,12.84-28.89,14.58-50.03,3.9-21.14-10.69-33.02-29.75-26.54-42.59.02-.03.03-.07.05-.1"/>
  <path class="sc-5" d="m120.69,76.51c-.29.78-.63,1.56-1.02,2.31-7.83,15.5-31.32,19.41-52.47,8.72-21.14-10.69-31.93-31.91-24.1-47.42.02-.04.04-.08.06-.12"/>
  <path class="sc-1" d="m110.23,97.29c-.18.55-.4,1.09-.66,1.62-5.41,10.71-26.95,10.73-48.1.04-21.15-10.69-33.91-28.04-28.5-38.75.01-.03.03-.05.04-.08"/>
  <rect class="sc-4" x="26.1" y="27.22" width="85.98" height="112.91" rx="6.9" ry="6.9" transform="translate(45.17 -22.17) rotate(26.81)"/>
  <path class="sc-6" d="m84.87,147.03c-.23.66-.5,1.3-.82,1.93-6.49,12.84-28.89,14.58-50.03,3.9C12.88,142.17,1,123.1,7.49,110.26c.02-.03.03-.07.05-.1"/>
  <ellipse class="sc-2" cx="93.45" cy="35.27" rx="26.04" ry="42.89" transform="translate(19.82 102.76) rotate(-63.19)"/>
</svg>